<?xml version='1.0' encoding='UTF-8'?>
<svg x="0px" y="0px" viewBox="0 0 32 32" version="1.1" xmlns="http://www.w3.org/2000/svg" xmlns:xlink="http://www.w3.org/1999/xlink" enable-background="new 0 0 32 32" xml:space="preserve" id="Layer_1">
  <g id="Audit_x5F_ChangeHistory">
    <polygon points="16,16 16,10 14,10 14,18 22,18 22,16  " fill="#727272" class="Black" />
    <path d="M16,2C11.6,2,7.7,4,5.2,7.2L2,4v10h0.2h4H12l-4-4c1.8-2.4,4.7-4,8-4c5.5,0,10,4.5,10,10c0,5.5-4.5,10-10,10   c-4.8,0-8.9-3.4-9.8-8h-4c1,6.8,6.8,12,13.8,12c7.7,0,14-6.3,14-14S23.7,2,16,2z" fill="#1177D7" class="Blue" />
  </g>
</svg>