<?xml version='1.0' encoding='UTF-8'?>
<svg x="0px" y="0px" viewBox="0 0 32 32" version="1.1" xmlns="http://www.w3.org/2000/svg" xmlns:xlink="http://www.w3.org/1999/xlink" enable-background="new 0 0 32 32" xml:space="preserve" id="Layer_1">
  <g id="ChangeTextCase">
    <path d="M12.6,6l5.8,16h-3.6l-1.2-3.6H7.8L6.6,22H3.1L9.1,6H12.6z M12.8,15.8l-2-5.9h0l-2,5.9H12.8z M19.7,14   c0-0.7,0.2-1.4,0.5-1.9s0.7-0.9,1.2-1.2c0.5-0.3,1.1-0.5,1.7-0.6c0.6-0.1,1.2-0.2,1.9-0.2c0.6,0,1.1,0,1.7,0.1   c0.6,0.1,1.1,0.2,1.6,0.5c0.5,0.2,0.9,0.6,1.2,1c0.3,0.4,0.5,1,0.5,1.7v6c0,0.5,0,1,0.1,1.5c0.1,0.5,0.2,0.8,0.3,1.1h-3.2   c-0.1-0.2-0.1-0.4-0.1-0.5c0-0.2-0.1-0.4-0.1-0.6c-0.5,0.5-1.1,0.9-1.8,1.1c-0.7,0.2-1.4,0.3-2.1,0.3c-0.5,0-1-0.1-1.5-0.2   c-0.5-0.1-0.9-0.3-1.2-0.6c-0.3-0.3-0.6-0.6-0.8-1.1c-0.2-0.4-0.3-1-0.3-1.5c0-0.7,0.1-1.2,0.3-1.6c0.2-0.4,0.5-0.8,0.9-1   c0.4-0.3,0.8-0.4,1.2-0.6c0.5-0.1,0.9-0.2,1.4-0.3c0.5-0.1,0.9-0.1,1.4-0.2c0.5,0,0.9-0.1,1.2-0.2c0.3-0.1,0.6-0.2,0.8-0.4   c0.2-0.2,0.3-0.4,0.3-0.8c0-0.3-0.1-0.6-0.2-0.8c-0.1-0.2-0.3-0.4-0.4-0.5c-0.2-0.1-0.4-0.2-0.6-0.2c-0.2,0-0.5-0.1-0.8-0.1   c-0.6,0-1.1,0.1-1.4,0.4s-0.6,0.7-0.6,1.3H19.7z M26.9,16.3c-0.1,0.1-0.3,0.2-0.5,0.3c-0.2,0.1-0.4,0.1-0.6,0.2   c-0.2,0-0.5,0.1-0.7,0.1c-0.2,0-0.5,0.1-0.7,0.1c-0.2,0-0.5,0.1-0.7,0.2c-0.2,0.1-0.4,0.2-0.6,0.3c-0.2,0.1-0.3,0.3-0.4,0.5   c-0.1,0.2-0.2,0.4-0.2,0.7c0,0.3,0.1,0.5,0.2,0.7c0.1,0.2,0.2,0.3,0.4,0.5c0.2,0.1,0.4,0.2,0.6,0.2c0.2,0,0.5,0.1,0.7,0.1   c0.6,0,1.1-0.1,1.4-0.3c0.3-0.2,0.6-0.5,0.7-0.8c0.2-0.3,0.3-0.6,0.3-0.9c0-0.3,0.1-0.5,0.1-0.7V16.3z" fill="#1177D7" class="Blue" />
  </g>
</svg>