<?xml version='1.0' encoding='UTF-8'?>
<svg x="0px" y="0px" viewBox="0 0 32 32" version="1.1" xmlns="http://www.w3.org/2000/svg" xmlns:xlink="http://www.w3.org/1999/xlink" enable-background="new 0 0 32 32" xml:space="preserve" id="Layer_1">
  <g id="ShowLegendInsideVerticalCenterLeft">
    <path d="M31,0H1C0.5,0,0,0.5,0,1v30c0,0.5,0.5,1,1,1h30c0.5,0,1-0.5,1-1V1C32,0.5,31.5,0,31,0z M30,30H2V2h28V30z" fill="#727272" class="Black" />
    <g opacity="0.75" class="st0">
      <polygon points="6,24 6,6 4,6 4,26 28,26 28,24   " fill="#727272" opacity="0.75" class="Black" />
    </g>
    <g opacity="0.5" class="st1">
      <polygon points="6,6 6,8 26,8 26,24 28,24 28,6   " fill="#727272" opacity="0.5" class="Black" />
    </g>
    <rect x="4" y="10" width="6" height="12" rx="0" ry="0" fill="#1177D7" class="Blue" />
  </g>
</svg>